# xmcd
#
# Track frame offsets:
#	150
#	19793
#	34284
#	51500
#	66798
#	87851
#	108056
#	122698
#	140051
#	157354
#	171319
#	196445
#	214441
#	229086
#	241792
#	262415
#	277143
#	293692
#	306146
#	321615
#
# Disc length: 4498 seconds
#
# Revision: 0
# Processed by: cddbd v1.5.1PL0 Copyright (c) Steve Scherf et al.
# Submitted via: dBpowerAMP V4.0
#
DISCID=42119014
DTITLE=Various Artist - The Worlds Best Award Winning Country
DYEAR=2004
DGENRE=Country
TTITLE0=Brooks and Dunn - Red Dirt Road
TTITLE1=Adam Harvey - When Lonely Met Love
TTITLE2=Terri Clark - Pain To Kill
TTITLE3=Joe Nichols - She Only Smoke When She Drinks
TTITLE4=Graeme Connors - The Simple Truth
TTITLE5=Doc Walker - Rocket Girl
TTITLE6=Matina McBride - In My Daughters Eyes
TTITLE7=Alan Jackson and Jimmy Buffet - It's Five O'Clock Somewhere
TTITLE8=Sara Storer - Back Out Back
TTITLE9=Gil Grand - Burnin
TTITLE10=Toby Keith - I Love This Bar
TTITLE11=Bella - Tumbling Down
TTITLE12=Aaron Lines - Love Changes Everything
TTITLE13=Ricky Skaggs and Kentucky Thunder - A Simple Life
TTITLE14=Rascal Flatts - Mayberry
TTITLE15=Dianna Corcoran - Little Bit Crazy
TTITLE16=Emerson Drive - Last One Standing
TTITLE17=June Carter Cash - Keep On the Sunny Side
TTITLE18=Vince Gill - Next Big Thing
TTITLE19=Lisa Brokop - I'd Like to See You Try
EXTD=
EXTT0=
EXTT1=
EXTT2=
EXTT3=
EXTT4=
EXTT5=
EXTT6=
EXTT7=
EXTT8=
EXTT9=
EXTT10=
EXTT11=
EXTT12=
EXTT13=
EXTT14=
EXTT15=
EXTT16=
EXTT17=
EXTT18=
EXTT19=
PLAYORDER=
